<svg width="58" height="58" viewBox="0 0 58 58" fill="none" xmlns="http://www.w3.org/2000/svg">
<path d="M0 29C0 12.9837 12.9837 0 29 0C45.0163 0 58 12.9837 58 29C58 45.0163 45.0163 58 29 58C12.9837 58 0 45.0163 0 29Z" fill="#8AD9A6"/>
<mask id="mask0_436_205" style="mask-type:alpha" maskUnits="userSpaceOnUse" x="0" y="0" width="58" height="58">
<path fill-rule="evenodd" clip-rule="evenodd" d="M0 29C0 12.9837 12.9837 0 29 0C45.0163 0 58 12.9837 58 29C58 45.0163 45.0163 58 29 58C12.9837 58 0 45.0163 0 29Z" fill="white"/>
</mask>
<g mask="url(#mask0_436_205)">
<path fill-rule="evenodd" clip-rule="evenodd" d="M29.0013 13.5334C24.8008 13.5334 24.2736 13.5518 22.6238 13.6269C20.9773 13.7023 19.8533 13.963 18.8699 14.3455C17.8526 14.7405 16.9897 15.269 16.13 16.129C15.2697 16.9887 14.7412 17.8516 14.3449 18.8685C13.9614 19.8523 13.7004 20.9765 13.6263 22.6225C13.5525 24.2723 13.5332 24.7997 13.5332 29.0003C13.5332 33.2008 13.5519 33.7264 13.6266 35.3762C13.7024 37.0227 13.9631 38.1466 14.3452 39.1301C14.7406 40.1473 15.269 41.0103 16.1291 41.87C16.9884 42.7303 17.8513 43.26 18.868 43.6551C19.852 44.0376 20.9763 44.2983 22.6225 44.3737C24.2723 44.4487 24.7992 44.4671 28.9994 44.4671C33.2002 44.4671 33.7258 44.4487 35.3756 44.3737C37.0222 44.2983 38.1474 44.0376 39.1314 43.6551C40.1484 43.26 41.01 42.7303 41.8694 41.87C42.7297 41.0103 43.2582 40.1473 43.6545 39.1304C44.0348 38.1466 44.2958 37.0224 44.3731 35.3765C44.4472 33.7267 44.4665 33.2008 44.4665 29.0003C44.4665 24.7997 44.4472 24.2726 44.3731 22.6228C44.2958 20.9762 44.0348 19.8523 43.6545 18.8689C43.2582 17.8516 42.7297 16.9887 41.8694 16.129C41.0091 15.2686 40.1487 14.7402 39.1305 14.3455C38.1445 13.963 37.0199 13.7023 35.3733 13.6269C33.7235 13.5518 33.1983 13.5334 28.9965 13.5334H29.0013ZM27.6134 16.3208C27.8828 16.3203 28.1726 16.3205 28.4854 16.3206L29.0009 16.3208C33.1305 16.3208 33.62 16.3356 35.2508 16.4097C36.7588 16.4787 37.5772 16.7306 38.1224 16.9423C38.8442 17.2227 39.3588 17.5578 39.8998 18.0991C40.4412 18.6405 40.7763 19.156 41.0573 19.8778C41.269 20.4224 41.5213 21.2408 41.5899 22.7488C41.664 24.3793 41.6801 24.8691 41.6801 28.9968C41.6801 33.1245 41.664 33.6143 41.5899 35.2447C41.5209 36.7528 41.269 37.5712 41.0573 38.1158C40.7769 38.8376 40.4412 39.3515 39.8998 39.8925C39.3585 40.4339 38.8445 40.769 38.1224 41.0493C37.5779 41.262 36.7588 41.5133 35.2508 41.5823C33.6203 41.6564 33.1305 41.6725 29.0009 41.6725C24.8709 41.6725 24.3814 41.6564 22.751 41.5823C21.243 41.5127 20.4245 41.2607 19.879 41.049C19.1572 40.7687 18.6416 40.4335 18.1003 39.8922C17.559 39.3509 17.2238 38.8366 16.9429 38.1145C16.7312 37.5699 16.4789 36.7515 16.4102 35.2435C16.3361 33.613 16.3213 33.1232 16.3213 28.9929C16.3213 24.8626 16.3361 24.3754 16.4102 22.745C16.4792 21.237 16.7312 20.4185 16.9429 19.8733C17.2232 19.1515 17.559 18.636 18.1003 18.0946C18.6416 17.5533 19.1572 17.2182 19.879 16.9372C20.4242 16.7245 21.243 16.4732 22.751 16.4039C24.1778 16.3395 24.7307 16.3201 27.6134 16.3169V16.3208ZM35.4014 20.7442C35.4014 19.7192 36.2327 18.8888 37.2574 18.8888V18.8882C38.2821 18.8882 39.1134 19.7195 39.1134 20.7442C39.1134 21.7689 38.2821 22.6002 37.2574 22.6002C36.2327 22.6002 35.4014 21.7689 35.4014 20.7442ZM29.0013 21.0574C24.6149 21.0574 21.0585 24.6138 21.0585 29.0003C21.0585 33.3867 24.6149 36.9415 29.0013 36.9415C33.3878 36.9415 36.9429 33.3867 36.9429 29.0003C36.9429 24.6138 33.3875 21.0574 29.001 21.0574H29.0013ZM34.1569 29.0003C34.1569 26.1528 31.8485 23.8447 29.0013 23.8447C26.1538 23.8447 23.8457 26.1528 23.8457 29.0003C23.8457 31.8475 26.1538 34.1559 29.0013 34.1559C31.8485 34.1559 34.1569 31.8475 34.1569 29.0003Z" fill="white"/>
</g>
</svg>
