<svg width="34" height="34" viewBox="0 0 34 34" fill="none" xmlns="http://www.w3.org/2000/svg">
<circle cx="17" cy="17" r="17" fill="#8AD9A6"/>
<g clip-path="url(#clip0_645_27)">
<path d="M11.625 15.795C13.065 18.625 15.38 20.94 18.215 22.38L20.415 20.175C20.69 19.9 21.085 19.82 21.43 19.93C22.55 20.3 23.755 20.5 25 20.5C25.555 20.5 26 20.945 26 21.5V25C26 25.555 25.555 26 25 26C15.61 26 8 18.39 8 9C8 8.445 8.45 8 9 8H12.5C13.055 8 13.5 8.445 13.5 9C13.5 10.245 13.7 11.45 14.07 12.57C14.18 12.915 14.1 13.31 13.825 13.585L11.625 15.795Z" fill="white"/>
</g>
<defs>
<clipPath id="clip0_645_27">
<rect width="24" height="24" fill="white" transform="translate(5 5)"/>
</clipPath>
</defs>
</svg>
