<svg width="58" height="58" viewBox="0 0 58 58" fill="none" xmlns="http://www.w3.org/2000/svg">
<path d="M29 58C45.0163 58 58 45.0163 58 29C58 12.9837 45.0163 0 29 0C12.9837 0 0 12.9837 0 29C0 45.0163 12.9837 58 29 58Z" fill="#8AD9A6"/>
<path d="M10.8003 30.4186C14.1904 28.5513 17.9747 26.9927 21.5105 25.4262C27.5935 22.8604 33.7006 20.3391 39.8694 17.9918C41.0696 17.5919 43.2262 17.2008 43.4376 18.9794C43.3218 21.4971 42.8455 24 42.5188 26.503C41.6896 32.0072 40.7311 37.4925 39.7964 42.9786C39.4744 44.806 37.1852 45.752 35.7205 44.5825C32.2003 42.2049 28.6532 39.8502 25.178 37.4174C24.0396 36.2607 25.0952 34.5995 26.1119 33.7735C29.0112 30.9163 32.0859 28.4887 34.8337 25.4839C35.5749 23.694 33.3848 25.2024 32.6625 25.6647C28.6933 28.3998 24.8214 31.302 20.6367 33.7059C18.4991 34.8825 16.0078 33.877 13.8712 33.2204C11.9555 32.4273 9.14851 31.6279 10.8003 30.4186Z" fill="white"/>
</svg>
