<svg width="58" height="58" viewBox="0 0 58 58" fill="none" xmlns="http://www.w3.org/2000/svg">
<path fill-rule="evenodd" clip-rule="evenodd" d="M21.4941 0.0512677C16.362 0.150131 12.8907 0.491512 10.1872 1.16331C7.52741 1.82423 5.41867 2.91506 4.08542 4.31972C2.2551 6.24808 1.10721 9.31733 0.550656 13.7712C0.204249 16.5432 0.0787135 19.2334 0.0314564 24.8969L0.000144961 28.6538H0.385401C1.34344 28.6538 5.9785 28.4616 8.01283 28.3375C12.8613 28.0418 15.9424 27.5226 18.3775 26.5908C20.5067 25.7761 22.5177 24.4229 23.8569 22.9037C26.7421 19.6308 27.8797 15.8535 28.3535 7.97282C28.4728 5.98841 28.6697 1.24366 28.6697 0.353268V0L26 0.00797282C24.5317 0.0123216 22.504 0.031843 21.4941 0.0512677ZM29.3463 0.374481C29.3466 1.37413 29.5425 6.1541 29.6637 8.11778C30.1505 16.0111 31.3142 19.7553 34.3134 23.0788C35.2802 24.1501 36.7685 25.237 38.3095 25.9971C41.1592 27.4026 44.4677 28.029 50.9211 28.3848C52.8728 28.4924 56.8893 28.6528 57.6497 28.6535L58 28.6538L57.9991 26.4432C57.9961 19.1416 57.722 14.5713 57.0999 11.4519C56.2371 7.12485 54.7221 4.48512 52.2096 2.93091C49.4812 1.24318 45.8805 0.449667 39.5659 0.144477C38.0751 0.0723836 34.1391 0.00154624 31.581 0.000724802L29.3462 0L29.3463 0.374481ZM0.0314081 33.0799C0.0787135 38.7511 0.204104 41.4398 0.550656 44.2129C1.19293 49.3528 2.62697 52.6651 4.99625 54.4812C7.68894 56.5452 11.5834 57.5172 18.45 57.8391C20.0071 57.9122 23.8731 57.9818 26.4349 57.9831L28.6697 57.9841L28.6693 57.6097C28.6687 56.8455 28.5099 52.8297 28.4015 50.8328C28.0538 44.4334 27.3857 40.9807 25.945 38.139C24.554 35.3953 22.5026 33.3686 19.7063 31.9755C16.3105 30.2836 11.9812 29.6722 1.10721 29.3486L0 29.3156L0.0314081 33.0799ZM55.7773 29.3822C47.071 29.7073 43.9805 30.0448 40.7176 31.0264C37.8985 31.8747 35.4726 33.4556 33.7359 35.5764C31.4225 38.4015 30.3088 41.905 29.8079 47.9336C29.6331 50.0381 29.3462 56.0689 29.3462 57.6396V58L33.1755 57.9683C37.1381 57.9354 38.8044 57.8913 40.8698 57.7646C45.5796 57.4757 48.617 56.8559 51.0177 55.6938C51.8168 55.3069 52.3573 54.9861 52.9075 54.5721C55.4896 52.6287 56.9385 49.1474 57.5605 43.3915C57.8485 40.727 57.997 36.7163 57.9991 31.541L58 29.3303L57.3839 29.3378C57.045 29.3418 56.3221 29.3618 55.7773 29.3822Z" fill="#8AD9A6"/>
</svg>
