<svg width="58" height="58" viewBox="0 0 58 58" fill="none" xmlns="http://www.w3.org/2000/svg">
<path d="M29 0C45.0163 0 58 12.9837 58 29C58 45.0163 45.0163 58 29 58C12.9837 58 0 45.0163 0 29C0 12.9837 12.9837 0 29 0Z" fill="#8AD9A6"/>
<path d="M36.7266 25.3247C36.5855 24.1789 36.2333 23.2791 35.6078 22.4822C34.7957 21.456 33.7578 20.8414 32.2212 20.4769C31.2198 20.2339 30.8152 20.2618 30.453 20.5927C30.1156 20.9026 30.0498 21.524 30.3076 21.9264C30.4889 22.2184 30.698 22.3231 31.2798 22.4372C32.0544 22.5798 32.5898 22.7648 33.0768 23.0432C34.1104 23.6401 34.5918 24.574 34.6434 26.0861C34.6674 26.796 34.7288 27.0143 34.9767 27.2661C35.4363 27.7264 36.2542 27.6368 36.6012 27.086C36.7285 26.8784 36.7479 26.7881 36.7614 26.306C36.7703 26.0075 36.7574 25.5633 36.7266 25.3247Z" fill="white"/>
<path d="M40.7744 26.6167C40.5702 23.1061 39.1971 20.2816 36.7396 18.2943C35.355 17.1777 33.6814 16.4099 31.8468 16.0365C31.1748 15.9029 29.9375 15.7947 29.7252 15.8566C29.5249 15.9139 29.2416 16.1308 29.1153 16.3269C28.9818 16.5396 28.9517 17.0145 29.0656 17.2892C29.2495 17.7484 29.5915 17.9106 30.5494 17.9944C32.0261 18.1236 33.5492 18.6425 34.7001 19.4105C36.0139 20.285 37.0583 21.4812 37.734 22.8867C38.3178 24.0944 38.6768 25.8347 38.6669 27.3932C38.6635 27.9569 38.7506 28.2752 38.9773 28.5079C39.3194 28.8658 39.8182 28.944 40.2583 28.7064C40.7462 28.4498 40.8603 27.9995 40.7744 26.6167Z" fill="white"/>
<path d="M45.2552 40.1364C45.1865 39.9358 45.0263 39.6262 44.9118 39.4485C44.1906 38.3595 40.3159 35.3271 38.3813 34.3354C37.2767 33.768 36.4582 33.5789 35.8515 33.7565C35.1991 33.94 34.8556 34.2437 33.7624 35.6023C33.3218 36.1468 32.8696 36.657 32.7494 36.7372C32.4518 36.9436 31.868 37.1099 31.4559 37.1099C30.5001 37.1041 28.7658 36.485 27.4323 35.671C26.3963 35.0406 25.0685 33.9113 24.0497 32.7935C22.8477 31.4809 22.0293 30.323 21.3825 29.016C20.5469 27.3365 20.3352 26.3104 20.6842 25.5595C20.7701 25.3704 20.8846 25.1698 20.936 25.1066C20.9876 25.0494 21.5256 24.608 22.1208 24.1265C23.2885 23.1979 23.4773 22.9858 23.6948 22.3495C23.9695 21.5412 23.8952 20.7158 23.4716 19.8847C23.1453 19.2541 22.2926 17.8784 21.6744 16.99C20.856 15.8206 18.8184 13.3214 18.412 12.9831C17.6794 12.387 16.7408 12.2838 15.7048 12.6851C14.6117 13.1093 12.5626 14.7602 11.6869 15.9123C10.897 16.9556 10.5938 17.695 10.548 18.6695C10.5079 19.4719 10.5766 19.8044 11.0001 20.8305C14.314 28.8784 19.2591 35.3042 26.0529 40.4059C29.6015 43.0713 33.2817 45.1005 37.0992 46.4877C39.3256 47.2959 40.2929 47.336 41.4319 46.6712C41.9126 46.3845 43.1032 45.1635 43.7671 44.2751C44.866 42.7961 45.2724 42.114 45.3868 41.5695C45.467 41.1969 45.404 40.5492 45.2552 40.1364Z" fill="white"/>
<path d="M44.8962 27.4229C44.8229 25.4371 44.4886 23.8083 43.7914 21.9922C43.1031 20.2058 42.4065 19.0401 41.0909 17.4635C39.8471 15.9852 38.881 15.1411 37.3488 14.2015C35.2111 12.8924 32.6096 12.0261 29.6941 11.6618C28.6998 11.5344 28.4749 11.5435 28.1699 11.747C27.5788 12.1326 27.5867 13.0943 28.1796 13.4741C28.3759 13.5949 28.5501 13.6389 29.3454 13.743C30.5662 13.9074 31.3513 14.0623 32.2828 14.3164C35.9356 15.315 38.7447 17.356 40.6226 20.3859C42.1942 22.9113 42.8466 25.4369 42.7539 28.6625C42.7217 29.7529 42.7451 29.9449 42.9118 30.2069C43.2311 30.6952 44.0729 30.7918 44.5048 30.3866C44.7735 30.1396 44.8241 29.9542 44.8771 29.0209C44.9024 28.534 44.9079 27.8153 44.8962 27.4229Z" fill="white"/>
</svg>
