<svg width="59" height="59" viewBox="0 0 59 59" fill="none" xmlns="http://www.w3.org/2000/svg">
<path fill-rule="evenodd" clip-rule="evenodd" d="M20.9763 0.87915H38.7815C55.0313 0.87915 58.8789 4.72671 58.8789 20.9765V38.7818C58.8789 55.0316 55.0313 58.8792 38.7815 58.8792H20.9763C4.72647 58.8792 0.878906 55.0316 0.878906 38.7818V20.9765C0.878906 4.72671 4.72647 0.87915 20.9763 0.87915Z" fill="#8AD9A6"/>
<path fill-rule="evenodd" clip-rule="evenodd" d="M48.36 20.8537C48.6465 19.9532 48.36 19.2983 47.0911 19.2983H42.8751C41.8109 19.2983 41.3197 19.8713 41.0332 20.4853C41.0332 20.4853 38.8639 25.7245 35.8349 29.1218C34.8526 30.1042 34.4023 30.4316 33.8702 30.4316C33.5837 30.4316 33.2153 30.1042 33.2153 29.2037V20.8127C33.2153 19.7485 32.8878 19.2573 31.9874 19.2573H25.3564C24.7015 19.2573 24.2922 19.7485 24.2922 20.2397C24.2922 21.263 25.8067 21.5086 25.9704 24.3738V30.5954C25.9704 31.9461 25.7248 32.1917 25.1927 32.1917C23.7601 32.1917 20.2809 26.9115 18.1934 20.8946C17.7841 19.7076 17.3748 19.2573 16.3106 19.2573H12.0537C10.8258 19.2573 10.6211 19.8304 10.6211 20.4443C10.6211 21.5495 12.0537 27.1162 17.2929 34.4839C20.7721 39.5184 25.7248 42.2199 30.1864 42.2199C32.8879 42.2199 33.2153 41.6059 33.2153 40.5827V36.776C33.2153 35.5481 33.4609 35.3434 34.3205 35.3434C34.9344 35.3434 36.0396 35.6709 38.5364 38.0858C41.4016 40.951 41.8928 42.2609 43.4891 42.2609H47.7051C48.933 42.2609 49.5061 41.6469 49.1786 40.4599C48.8102 39.2729 47.4185 37.5537 45.6176 35.5071C44.6352 34.3611 43.1617 33.0922 42.7114 32.4782C42.0975 31.6596 42.2612 31.3321 42.7114 30.5954C42.6705 30.5954 47.8279 23.3095 48.36 20.8537Z" fill="white"/>
</svg>
