<svg width="34" height="34" viewBox="0 0 34 34" fill="none" xmlns="http://www.w3.org/2000/svg">
<path d="M17 34C26.3888 34 34 26.3888 34 17C34 7.61116 26.3888 0 17 0C7.61116 0 0 7.61116 0 17C0 26.3888 7.61116 34 17 34Z" fill="#8AD9A6"/>
<path fill-rule="evenodd" clip-rule="evenodd" d="M17.5599 26.4581H17.5557C15.8639 26.4575 14.2015 26.033 12.725 25.2277L7.36621 26.6334L8.80031 21.3952C7.91569 19.8621 7.4502 18.1231 7.45096 16.3415C7.45318 10.7679 11.988 6.2334 17.5598 6.2334C20.264 6.23457 22.8021 7.2873 24.7106 9.19806C26.6191 11.1087 27.6696 13.6485 27.6686 16.3495C27.6663 21.9218 23.1333 26.4558 17.5599 26.4581ZM12.9728 23.3975L13.2796 23.5796C14.5696 24.3451 16.0483 24.7502 17.556 24.7508H17.5594C22.1903 24.7508 25.9594 20.9816 25.9613 16.3488C25.9621 14.1037 25.089 11.9928 23.5027 10.4046C21.9164 8.8165 19.8069 7.94145 17.5627 7.94067C12.9282 7.94067 9.15907 11.7095 9.15723 16.342C9.15658 17.9295 9.60078 19.4757 10.4418 20.8134L10.6416 21.1312L9.79282 24.2317L12.9728 23.3975ZM22.3071 18.526C22.4833 18.6111 22.6023 18.6686 22.6531 18.7534C22.7162 18.8587 22.7162 19.3644 22.5058 19.9545C22.2952 20.5445 21.2862 21.083 20.8008 21.1555C20.3657 21.2206 19.815 21.2477 19.21 21.0554C18.8431 20.939 18.3727 20.7836 17.77 20.5233C15.4021 19.5009 13.8019 17.2059 13.4995 16.7721C13.4783 16.7417 13.4635 16.7205 13.4552 16.7094L13.4531 16.7067C13.3195 16.5284 12.4238 15.3334 12.4238 14.0966C12.4238 12.9331 12.9953 12.3233 13.2584 12.0426C13.2764 12.0233 13.293 12.0056 13.3078 11.9894C13.5394 11.7366 13.813 11.6733 13.9814 11.6733C14.1498 11.6733 14.3183 11.6749 14.4655 11.6823C14.4837 11.6832 14.5025 11.6831 14.5221 11.683C14.6693 11.6821 14.8528 11.681 15.0338 12.1159C15.1034 12.2832 15.2054 12.5313 15.3128 12.793C15.5302 13.3221 15.7703 13.9067 15.8126 13.9913C15.8757 14.1178 15.9178 14.2652 15.8336 14.4339C15.821 14.4591 15.8093 14.483 15.7981 14.5058C15.7349 14.6349 15.6884 14.7299 15.581 14.8552C15.5388 14.9045 15.4952 14.9576 15.4516 15.0107C15.3647 15.1165 15.2778 15.2223 15.2022 15.2977C15.0757 15.4237 14.9441 15.5603 15.0914 15.8132C15.2388 16.0661 15.7457 16.8932 16.4966 17.5629C17.3037 18.2829 18.0052 18.5872 18.3608 18.7414C18.4303 18.7716 18.4865 18.796 18.5278 18.8166C18.7803 18.9431 18.9276 18.9219 19.075 18.7534C19.2223 18.5848 19.7064 18.0158 19.8747 17.763C20.0431 17.5102 20.2115 17.5523 20.443 17.6366C20.6746 17.721 21.9164 18.3319 22.169 18.4584C22.2183 18.483 22.2644 18.5053 22.3071 18.526Z" fill="#FDFDFD"/>
</svg>
