<svg width="1920" height="742" viewBox="0 0 1920 742" fill="none" xmlns="http://www.w3.org/2000/svg">
<path d="M2099 702.624C1471.98 702.624 1404.14 354.361 999.145 354.361C594.152 354.361 341.288 14.9927 -50 14.9927" stroke="#A0D0F4" stroke-width="2"/>
<path d="M2111 689.631C1483.69 689.631 1415.82 340.862 1010.63 340.862C605.451 340.862 352.47 1 -39 1" stroke="#A0D0F4" stroke-width="2"/>
<path d="M2059 716.617C1431.69 716.617 1363.82 367.847 958.633 367.847C553.451 367.847 300.47 27.9856 -91 27.9856" stroke="#A0D0F4" stroke-width="2"/>
<path d="M2008 727.611C1380.98 727.611 1313.14 378.842 908.145 378.842C503.152 378.842 250.288 38.9797 -141 38.9797" stroke="#A0D0F4" stroke-width="2"/>
<path d="M1978 740.604C1350.69 740.604 1282.82 391.834 877.633 391.834C472.451 391.834 219.47 51.9727 -172 51.9727" stroke="#A0D0F4" stroke-width="2"/>
</svg>
