<svg width="723" height="476" viewBox="0 0 723 476" fill="none" xmlns="http://www.w3.org/2000/svg">
<g clip-path="url(#clip0_645_25)">
<path d="M413.815 269.379C413.815 269.379 446.952 230.713 415.856 206.141C415.856 206.141 393.176 192.387 374.629 193.534C374.629 193.534 400.875 237.559 392.382 241.946C383.89 246.333 366.679 190.773 366.679 190.773C366.679 190.773 315.02 185.73 298.375 193.761C298.375 193.761 342.55 229.931 333.252 232.087C323.953 234.243 276.238 198.741 276.238 198.741C276.238 198.741 228.132 206.923 230.702 236.285C233.272 265.648 249.841 274.712 257.162 273.931C264.482 273.149 307.057 256.873 307.976 262.849C308.896 268.825 283.256 288.328 265.301 289.249C265.301 289.249 299.207 326.667 321.748 315.862C344.289 305.058 346.204 287.95 360.253 281.52C374.302 275.091 386.297 275.116 380.488 281.672C374.68 288.227 349.266 294.581 341.24 308.802C333.214 323.023 325.994 332.605 349.304 329.1C372.613 325.595 410.526 308.512 412.189 288.971L413.815 269.379Z" fill="#82B378"/>
<path d="M254.352 237.067C254.352 237.067 384.986 232.024 413.84 269.405C413.84 269.405 420.215 288.53 439.858 305.966L442.907 314.312C442.907 314.312 420.228 290.358 412.176 288.984C412.176 288.933 424.839 242.614 254.352 237.067Z" fill="#82B378"/>
<path d="M439.857 305.915C439.857 305.915 467.892 326.667 469.832 363.732L464.792 364.186C464.792 364.186 455.834 325.86 439.593 310.87C423.352 295.88 439.857 305.915 439.857 305.915Z" fill="#82B378"/>
<path d="M529.732 220.74C529.732 220.74 477.028 191.214 501.622 151.136C501.622 151.136 521.303 126.526 542.383 120.198C542.383 120.198 531.131 179.956 542.383 181.368C553.634 182.78 550.106 113.869 550.106 113.869C550.106 113.869 605.621 87.1412 627.406 89.2592C627.406 89.2592 592.971 147.618 604.222 146.206C615.474 144.794 654.105 85.6914 654.105 85.6914C654.105 85.6914 711.03 75.139 720.165 108.889C729.3 142.638 714.546 159.52 706.117 161.625C697.687 163.73 643.571 163.037 644.97 170.072C646.368 177.107 682.92 188.352 703.294 182.023C703.294 182.023 680.816 237.571 651.295 234.76C621.774 231.948 612.652 213.668 594.382 212.256C576.112 210.844 562.756 215.773 571.891 220.69C581.026 225.607 611.946 222.304 626.7 234.861C641.455 247.417 653.412 255.146 626.007 260.769C598.603 266.391 549.401 262.887 539.573 241.782L529.732 220.74Z" fill="#A8D29F"/>
<path d="M694.107 119.492C694.107 119.492 546.539 167.311 529.68 220.741C529.68 220.741 530.386 244.695 515.619 272.077V282.617C515.619 282.617 531.079 246.762 539.559 241.833C539.521 241.833 506.484 195.463 694.107 119.492Z" fill="#82B378"/>
<path d="M515.62 272.078C515.62 272.078 492.865 306.647 505.843 348.742L511.701 347.166C511.701 347.166 506.007 300.81 517.913 277.486C529.82 254.163 515.62 272.078 515.62 272.078Z" fill="#82B378"/>
<path d="M445.83 180.019C445.83 180.019 515.305 141.088 482.886 88.2507C482.886 88.2507 456.943 55.8122 429.16 47.4788C429.16 47.4788 443.978 126.262 429.16 128.165C414.343 130.069 418.967 39.1833 418.967 39.1833C418.967 39.1833 345.788 3.95862 317.073 6.74482C317.073 6.74482 362.432 83.6491 347.64 81.821C332.848 79.993 281.869 2.10528 281.869 2.10528C281.869 2.10528 206.837 -11.7627 194.805 32.6905C182.772 77.1438 202.213 99.4334 213.326 102.207C224.439 104.981 295.766 104.06 293.965 113.327C292.163 122.593 243.944 137.432 217.106 129.086C217.106 129.086 246.754 202.309 285.649 198.602C324.545 194.896 336.603 170.866 360.681 168.937C384.759 167.008 402.373 173.577 390.328 180.07C378.283 186.562 337.522 182.187 318.081 198.741C298.639 215.294 282.877 225.481 319.001 232.894C355.124 240.307 419.975 235.68 432.94 207.868L445.83 180.019Z" fill="#A8D29F"/>
<path d="M229.076 46.5461C229.076 46.5461 423.604 109.582 445.792 180.019C445.792 180.019 444.873 211.538 464.314 247.683V261.551C464.314 261.551 443.94 214.286 432.815 207.793C432.865 207.818 476.397 146.648 229.076 46.5461Z" fill="#82B378"/>
<path d="M464.353 247.682C464.353 247.682 494.353 293.258 477.255 348.742L469.531 346.675C469.531 346.675 477.091 285.555 461.328 254.818C445.566 224.082 464.353 247.682 464.353 247.682Z" fill="#82B378"/>
<path d="M448.175 469.041C412.085 469.041 377.473 454.696 351.954 429.161C326.434 403.626 312.098 368.994 312.098 332.882H584.253C584.253 368.994 569.916 403.626 544.396 429.161C518.877 454.696 484.265 469.041 448.175 469.041Z" fill="#70B6EF"/>
<path d="M488.367 468.032C469.219 470.405 449.786 468.681 431.354 462.976C412.922 457.27 395.911 447.713 381.447 434.937C366.983 422.16 355.396 406.455 347.452 388.862C339.508 371.269 335.39 352.188 335.368 332.882H369.186C369.175 366.074 381.281 398.126 403.228 423.014C425.175 447.902 455.452 463.911 488.367 468.032Z" fill="#8BC4F2"/>
<path d="M310.207 476H586.142C586.142 471.543 584.372 467.268 581.223 464.117C578.073 460.965 573.801 459.195 569.346 459.195H326.99C324.785 459.195 322.601 459.629 320.564 460.474C318.527 461.319 316.677 462.557 315.118 464.118C313.559 465.678 312.324 467.531 311.481 469.57C310.638 471.609 310.205 473.794 310.207 476Z" fill="#4E99D3"/>
<path d="M308.996 337.081L588.736 337.081V332.908L308.996 332.908V337.081Z" fill="#4E99D3"/>
</g>
<g clip-path="url(#clip1_645_25)">
<path d="M151.106 374.86C151.106 374.86 134.911 355.933 150.108 343.905C150.108 343.905 161.192 337.172 170.257 337.734C170.257 337.734 157.43 359.284 161.58 361.431C165.731 363.579 174.142 336.382 174.142 336.382C174.142 336.382 199.389 333.914 207.523 337.845C207.523 337.845 185.934 355.55 190.479 356.606C195.023 357.661 218.343 340.283 218.343 340.283C218.343 340.283 241.853 344.288 240.597 358.661C239.341 373.033 231.243 377.47 227.666 377.088C224.088 376.705 203.281 368.738 202.831 371.663C202.382 374.588 214.913 384.135 223.688 384.586C223.688 384.586 207.117 402.902 196.101 397.613C185.085 392.324 184.148 383.95 177.283 380.803C170.417 377.655 164.554 377.668 167.393 380.877C170.232 384.086 182.652 387.196 186.575 394.157C190.497 401.118 194.026 405.809 182.634 404.093C171.242 402.377 152.713 394.015 151.9 384.45L151.106 374.86Z" fill="#82B378"/>
<path d="M229.039 359.043C229.039 359.043 165.195 356.575 151.094 374.872C151.094 374.872 147.978 384.234 138.378 392.769L136.888 396.854C136.888 396.854 147.972 385.129 151.907 384.456C151.907 384.432 145.718 361.759 229.039 359.043Z" fill="#82B378"/>
<path d="M138.378 392.744C138.378 392.744 124.677 402.902 123.729 421.045L126.192 421.268C126.192 421.268 130.57 402.507 138.507 395.17C146.445 387.832 138.378 392.744 138.378 392.744Z" fill="#82B378"/>
<path d="M94.4538 351.052C94.4538 351.052 120.212 336.599 108.192 316.98C108.192 316.98 98.5733 304.934 88.2713 301.836C88.2713 301.836 93.7702 331.088 88.2713 331.779C82.7724 332.47 84.4967 298.738 84.4967 298.738C84.4967 298.738 57.3654 285.655 46.7186 286.692C46.7186 286.692 63.5478 315.259 58.0489 314.568C52.55 313.876 33.6703 284.946 33.6703 284.946C33.6703 284.946 5.84952 279.78 1.38512 296.301C-3.07927 312.821 4.13143 321.084 8.25099 322.115C12.3705 323.146 38.8182 322.806 38.1347 326.25C37.4512 329.693 19.5875 335.198 9.63033 332.1C9.63033 332.1 20.6158 359.29 35.0435 357.914C49.4712 356.538 53.9294 347.59 62.8582 346.898C71.7869 346.207 78.3143 348.62 73.8499 351.027C69.3855 353.434 54.2743 351.817 47.0635 357.963C39.8527 364.11 34.009 367.893 47.4022 370.645C60.7954 373.398 84.8414 371.682 89.6445 361.351L94.4538 351.052Z" fill="#A8D29F"/>
<path d="M14.1195 301.491C14.1195 301.491 86.2394 324.898 94.4786 351.052C94.4786 351.052 94.1337 362.777 101.351 376.181V381.34C101.351 381.34 93.795 363.789 89.6508 361.376C89.6693 361.376 105.815 338.678 14.1195 301.491Z" fill="#82B378"/>
<path d="M101.351 376.181C101.351 376.181 112.472 393.102 106.129 413.708L103.266 412.937C103.266 412.937 106.049 390.245 100.23 378.828C94.4108 367.412 101.351 376.181 101.351 376.181Z" fill="#82B378"/>
<path d="M135.459 331.119C135.459 331.119 101.504 312.062 117.348 286.198C117.348 286.198 130.027 270.32 143.605 266.241C143.605 266.241 136.364 304.805 143.605 305.737C150.847 306.668 148.587 262.18 148.587 262.18C148.587 262.18 184.351 244.938 198.385 246.302C198.385 246.302 176.217 283.946 183.446 283.051C190.675 282.156 215.59 244.031 215.59 244.031C215.59 244.031 252.259 237.242 258.14 259.002C264.021 280.762 254.519 291.672 249.088 293.03C243.657 294.388 208.798 293.937 209.678 298.473C210.559 303.009 234.125 310.272 247.241 306.187C247.241 306.187 232.751 342.029 213.742 340.215C194.733 338.401 188.84 326.638 177.073 325.694C165.305 324.75 156.697 327.965 162.583 331.143C168.47 334.322 188.391 332.18 197.892 340.283C207.394 348.386 215.097 353.372 197.443 357.001C179.788 360.629 148.094 358.365 141.758 344.751L135.459 331.119Z" fill="#A8D29F"/>
<path d="M241.392 265.784C241.392 265.784 146.322 296.64 135.478 331.119C135.478 331.119 135.927 346.547 126.426 364.24V371.028C126.426 371.028 136.383 347.892 141.82 344.714C141.796 344.726 120.521 314.784 241.392 265.784Z" fill="#82B378"/>
<path d="M126.406 364.24C126.406 364.24 111.745 386.548 120.101 413.708L123.876 412.696C123.876 412.696 120.181 382.778 127.884 367.732C135.588 352.687 126.406 364.24 126.406 364.24Z" fill="#82B378"/>
<path d="M134.313 472.594C151.951 472.594 168.867 465.572 181.339 453.073C193.811 440.573 200.817 423.621 200.817 405.945H67.8093C67.8093 423.621 74.816 440.573 87.288 453.073C99.7599 465.572 116.675 472.594 134.313 472.594Z" fill="#70B6EF"/>
<path d="M155.774 472.1C146.416 473.261 136.919 472.418 127.911 469.625C118.902 466.832 110.589 462.154 103.52 455.9C96.4509 449.646 90.7879 441.958 86.9057 433.346C83.0234 424.734 81.0105 415.395 81 405.945H97.5275C97.5222 422.192 103.439 437.881 114.165 450.064C124.891 462.246 139.688 470.083 155.774 472.1Z" fill="#8BC4F2"/>
<path d="M201.741 476H66.8858C66.8858 473.818 67.7506 471.726 69.29 470.183C70.8293 468.641 72.9172 467.774 75.0942 467.774H193.539C194.617 467.774 195.684 467.987 196.679 468.4C197.675 468.814 198.579 469.42 199.341 470.184C200.103 470.948 200.707 471.855 201.119 472.853C201.531 473.851 201.742 474.92 201.741 476Z" fill="#4E99D3"/>
<path d="M202.332 408H65.6172V405.957H202.332V408Z" fill="#4E99D3"/>
</g>
<defs>
<clipPath id="clip0_645_25">
<rect width="532" height="476" fill="white" transform="translate(191)"/>
</clipPath>
<clipPath id="clip1_645_25">
<rect width="260" height="233" fill="white" transform="matrix(-1 0 0 1 260 243)"/>
</clipPath>
</defs>
</svg>
