<svg width="264" height="135" viewBox="0 0 264 135" fill="none" xmlns="http://www.w3.org/2000/svg">
<g clip-path="url(#clip0_314_1128)">
<path d="M116.971 119.526C115.542 128.674 106.193 134.499 96.605 134.499H77.6123L79.0987 81.1847C79.0987 81.1847 97.2193 75.3761 101.764 80.901C105.752 85.7404 116.565 104.898 117.133 116.238C117.193 117.337 117.138 118.439 116.971 119.526Z" fill="#7BBDF2"/>
<path d="M66.5625 86.8326C66.5625 86.8326 92.1839 73.7722 97.029 82.2998C99.6059 86.8293 106.696 104.896 107.212 116.235C107.721 127.252 98.1623 134.497 88.3243 134.497H70.8705L66.5625 86.8326Z" fill="#4E99D3"/>
<path d="M71.3728 94.0745C71.1576 95.1847 69.0833 96.2064 66.0054 97.1248C65.4579 97.2855 64.8858 97.4429 64.2891 97.5971C53.8122 100.269 35.2548 101.759 33.4859 100.972C31.042 99.8831 16.042 46.6642 16.042 46.6642C16.042 46.6642 30.3604 46.1279 41.7324 45.8655C45.6232 45.777 49.1675 45.7196 51.6771 45.7278C51.9661 45.7283 52.2547 45.748 52.541 45.7868C53.5115 45.9037 54.4084 46.3625 55.0703 47.0807C56.9016 49.0486 57.3565 52.9254 59.0515 57.2155C60.7267 61.4563 62.7847 66.75 64.7358 72.0027C65.2384 73.3556 65.7344 74.707 66.214 76.0369C66.3503 76.4125 66.4834 76.7864 66.618 77.157C69.5004 85.214 71.721 92.2771 71.3728 94.0745Z" fill="#70B6EF"/>
<path d="M116.97 119.526C115.542 128.674 106.193 134.499 96.6047 134.499H87.2891C93.4973 130.297 99.1176 117.34 116.97 119.526Z" fill="#70B6EF"/>
<path d="M102.016 126.311C98.3484 131.394 92.7265 134.656 86.4624 134.554L59.527 134.569H46.626L61.1415 86.8391C61.1415 86.8391 97.8803 83.1903 102.412 88.0576C104.514 90.3158 105.697 100.549 106.353 110.864C106.736 116.679 105.041 122.116 102.016 126.311Z" fill="#70B6EF"/>
<path d="M102.016 126.311C98.3487 131.394 92.7268 134.656 86.4627 134.555L59.5273 134.569C62.6955 131.913 72.6665 124.376 83.3323 124.73C91.4277 125.004 97.8494 124.887 102.016 126.311Z" fill="#4E99D3"/>
<path d="M66.9433 51.9447C66.9433 51.9447 70.3299 54.0619 74.3144 59.9016C77.8045 65.0149 79.6111 66.6729 81.5935 67.1616C83.5759 67.6503 93.2923 67.3863 93.2923 67.3863L93.3153 69.0967C93.3153 69.0967 80.5374 72.7849 78.2906 71.3729C76.0438 69.961 65.6146 60.3575 64.8033 57.445C63.9919 54.5325 66.9433 51.9447 66.9433 51.9447Z" fill="#F4A269"/>
<path d="M101.185 126.03C101.067 127.313 102.857 127.626 104.93 127.727C107.002 127.829 106.375 128.256 109.216 128.769C112.058 129.282 113.194 128.506 113.401 128.123C113.584 127.783 112.263 127.252 110.856 126.647C110.678 126.573 110.501 126.494 110.323 126.417C108.74 125.722 107.852 124.303 106.617 122.988C105.447 121.743 104.335 117.755 104.335 117.755L100.476 116.935C100.476 116.935 101.56 120.525 101.936 122.057C102.157 122.959 101.831 123.966 101.542 124.733C101.364 125.147 101.245 125.584 101.185 126.03Z" fill="#FFB27D"/>
<path d="M104.93 127.726C107.003 127.829 106.375 128.254 109.217 128.767C112.058 129.28 113.194 128.505 113.401 128.121C113.584 127.782 112.263 127.25 110.856 126.645L110.834 126.67C109.431 127.074 107.944 127.092 106.531 126.72C104.652 126.21 102.836 125.09 101.542 124.728C101.365 125.142 101.245 125.579 101.185 126.025C101.067 127.312 102.859 127.626 104.93 127.726Z" fill="#163560"/>
<path d="M62.7482 80.3319C62.7482 80.3319 88.3975 78.405 93.2262 81.4471C98.0548 84.4891 105.8 119.935 105.8 119.935C105.8 119.935 105.322 120.318 104.255 120.427C103.269 120.533 101.075 119.951 101.075 119.951C101.075 119.951 89.9447 104.091 89.1612 100.096C88.3778 96.1015 88.5683 92.5363 86.783 92.4411C84.9978 92.346 62.7449 95.1421 59.378 89.2203C56.0111 83.2985 58.7949 77.4391 58.7949 77.4391L62.7482 80.3319Z" fill="#163560"/>
<path d="M91.3713 130.143C91.2514 131.427 93.0416 131.739 95.1143 131.842C97.187 131.945 96.5613 132.369 99.401 132.882C102.241 133.395 103.381 132.619 103.586 132.237C103.768 131.896 102.448 131.365 101.04 130.761L100.508 130.53C98.9247 129.835 98.0362 128.418 96.8011 127.103C95.6317 125.856 94.5214 121.868 94.5214 121.868L90.6602 121.048C90.6602 121.048 91.7441 124.638 92.1203 126.17C92.342 127.072 92.0151 128.08 91.7261 128.846C91.5505 129.261 91.4312 129.697 91.3713 130.143Z" fill="#FFB27D"/>
<path d="M95.1159 131.842C97.1886 131.945 96.5629 132.368 99.4026 132.882C102.242 133.395 103.382 132.619 103.587 132.237C103.77 131.896 102.449 131.365 101.042 130.761L101.02 130.784C99.617 131.189 98.1301 131.207 96.7172 130.837C94.8383 130.327 93.0218 129.197 91.7276 128.843C91.552 129.257 91.4327 129.694 91.3729 130.14C91.253 131.427 93.0432 131.739 95.1159 131.842Z" fill="#163560"/>
<path d="M57.7245 81.9128C57.7245 81.9128 80.5112 82.9902 85.2167 86.2176C89.9221 89.445 96.2799 125.164 96.2799 125.164C96.2799 125.164 95.7871 125.528 94.7163 125.602C93.721 125.671 91.558 125.004 91.558 125.004C91.558 125.004 81.0466 108.724 80.4274 104.701C79.8082 100.678 80.1302 97.1231 78.3498 96.9591C76.5694 96.7951 54.2246 98.7237 51.086 92.6756C47.9473 86.6276 57.7245 81.9128 57.7245 81.9128Z" fill="#1C468A"/>
<path d="M63.3842 31.3899C62.2904 30.8717 61.0274 30.8979 60.1503 31.0176C60.3317 30.8416 60.5549 30.7146 60.7991 30.6486C60.2472 30.6076 59.068 31.239 59.068 31.239C51.2567 28.8808 50.764 39.3321 51.2452 42.7185C51.9219 47.4743 48.2019 47.7564 46.2491 51.7627C41.2397 62.0352 52.7283 69.7741 52.7283 69.7741C52.7891 69.8036 60.4082 55.2394 65.2106 51.5528C66.3077 49.6521 66.5064 46.4264 66.5245 46.1722C66.4998 48.7207 66.1714 50.1736 65.8429 51.0018C69.8323 46.7511 66.2863 32.7625 63.3842 31.3899Z" fill="#163560"/>
<path d="M56.7669 49.621C58.1792 49.5046 59.5987 49.5046 61.0109 49.621C62.2754 49.7561 63.5148 50.0668 64.6932 50.5443C66.7018 51.3823 66.4998 54.9327 62.2772 54.2751C58.0546 53.6175 56.4713 50.6738 56.7669 49.621Z" fill="#FFB27D"/>
<path d="M64.5166 52.2104C64.5413 52.2235 65.1178 55.2639 62.3585 55.1426C60.5519 55.0622 56.6413 52.8746 56.9863 51.3265C57.1505 50.5901 58.5186 48.6812 58.7929 44.3207L59.1214 44.4092L64.6678 45.8934C64.6678 45.8934 64.4214 47.6497 64.3064 49.3126C64.2095 50.7098 64.2062 52.0398 64.5166 52.2104Z" fill="#FFB27D"/>
<path d="M64.6668 45.8934C64.6668 45.8934 64.4204 47.6497 64.3055 49.3126C61.1685 49.0141 59.6969 46.0328 59.1221 44.4076L64.6668 45.8934Z" fill="#F4A269"/>
<path d="M57.8687 44.201C57.8687 44.201 56.0292 41.7263 55.4675 39.5338C55.0684 37.9693 55.4396 32.0295 61.4195 32.4378C62.6229 32.5151 63.7937 32.8609 64.8456 33.4496C66.1956 34.2204 68.1879 35.9538 66.4962 41.236L66.0872 43.0088L57.8687 44.201Z" fill="#163560"/>
<path d="M65.3584 46.9594C65.3584 46.9594 57.9331 47.6318 57.5833 43.0088C57.2335 38.3859 56.0411 35.3586 60.7679 34.7337C65.4947 34.1089 66.5491 35.803 67.0419 37.3183C67.5346 38.8336 67.28 46.6642 65.3584 46.9594Z" fill="#FFB27D"/>
<path d="M64.1445 34.3697C64.1445 34.3697 62.5136 39.9455 59.4489 40.9786C56.3842 42.0118 54.9668 41.2771 54.9668 41.2771C56.4075 39.8107 57.2934 37.8903 57.4731 35.844C57.4731 35.844 62.4184 31.9016 64.1445 34.3697Z" fill="#163560"/>
<path d="M63.6729 34.8468C63.6729 34.8468 65.2824 35.9456 65.7406 37.0951C66.1989 38.2447 66.5471 40.6571 67.2484 40.521C67.2484 40.521 68.5064 36.7212 66.6292 34.7632C64.6369 32.687 63.6729 34.8468 63.6729 34.8468Z" fill="#163560"/>
<path d="M73.0609 80.7124C72.4581 81.4324 70.5776 81.6521 68.5656 81.9834C66.984 82.2441 65.3219 82.5705 64.1311 83.2642C61.4475 84.8385 52.6771 90.1519 50.1067 89.9141C49.1098 89.8206 49.297 87.9216 49.8998 85.401C50.8507 81.4209 52.8397 75.8894 52.8397 73.4886C52.8397 72.1766 53.2765 69.0739 53.8596 65.5251C53.9072 65.2381 53.9565 64.9495 54.0041 64.6592C55.1538 57.7584 56.7584 49.6227 56.7584 49.6227C56.7584 49.6227 58.5421 53.5077 62.0141 53.5077C65.4861 53.5077 64.6813 50.5443 64.6813 50.5443C64.6813 50.5443 67.8528 50.9166 68.6018 51.7234C69.3507 52.5303 71.2509 56.0118 71.6271 56.9614C71.6271 56.9614 71.7042 58.17 68.7069 58.7456C68.7069 58.7456 69.4377 62.0255 69.5281 64.2131C69.5921 65.8285 68.4227 70.8843 68.0877 74.0297C67.9678 75.1432 67.953 76.0173 68.1337 76.4142C68.3653 76.9226 69.1191 77.4277 69.9682 77.9246C71.6714 78.9102 73.777 79.8564 73.0609 80.7124Z" fill="white"/>
<path d="M69.9778 77.9245C71.901 81.2043 64.7615 82.1883 63.5724 82.8771C60.8887 84.4514 52.68 90.1567 50.1047 89.914C49.1078 89.8205 49.295 87.9215 49.8978 85.4009C50.8488 81.4208 52.8377 75.8893 52.8377 73.4885C52.8377 72.1765 53.2746 69.0738 53.8576 65.525L56.9519 62.5583C56.9519 62.5583 60.2679 71.1139 63.4279 72.516C64.9306 73.1625 66.4898 73.6692 68.0857 74.0296C67.9658 75.1432 67.9511 76.0172 68.1317 76.4141C68.3699 76.9225 69.1254 77.4276 69.9778 77.9245Z" fill="#EBEEF2"/>
<path d="M55.8153 52.1825C55.8153 52.1825 53.1694 50.5787 50.6122 53.6224C48.055 56.6661 52.4303 78.4181 56.2194 79.5333C60.4305 80.7747 73.0605 80.7107 73.0605 80.7107L72.6499 79.1938C72.6499 79.1938 59.4105 74.9579 58.8718 74.274C58.3331 73.5902 57.1604 52.5335 55.8153 52.1825Z" fill="#FFB27D"/>
<path d="M56.7664 49.621C56.7664 49.621 51.3334 50.113 49.7567 51.8956C48.18 53.6782 47.7168 58.5209 47.7168 58.5209C47.7168 58.5209 52.5011 62.3764 58.2659 60.8808L56.7664 49.621Z" fill="white"/>
<path d="M98.403 68.7967C98.1796 68.7762 97.9548 68.7762 97.7313 68.7967C98.4786 68.4375 99.2308 68.0472 99.2308 68.0472C99.2308 68.0472 98.8892 67.7061 97.6032 68.1834C97.4641 68.2342 97.3153 68.2527 97.168 68.2375L98.9746 67.3978C98.6461 67.1125 97.7822 67.3568 97.1105 67.6126C96.8746 67.7036 96.6194 67.7333 96.3689 67.6989C96.1184 67.6645 95.8808 67.5671 95.6783 67.4159L95.6586 67.3995L95.7473 67.3896C96.8034 67.2256 97.0612 66.6123 96.7705 66.6845C96.4798 66.7566 94.7077 66.9108 94.7077 66.9108C93.9062 66.8763 92.3262 67.5094 92.3262 67.5094L93.2377 69.1345C93.2377 69.1345 95.7966 69.5724 96.4585 69.3575C96.5127 69.3411 96.5751 69.3165 96.6473 69.2887L98.9647 69.105C98.9647 69.105 98.9171 68.8524 98.403 68.7967Z" fill="#F4A269"/>
<path d="M72.3701 79.2693C72.3701 79.2693 75.6976 78.3706 76.6009 78.5477C77.5043 78.7248 79.2567 79.6793 79.5228 80.104C79.7888 80.5287 77.5043 80.4697 76.2281 80.432C74.952 80.3943 74.5151 80.8666 73.9583 80.7862C73.6616 80.7404 73.3618 80.7179 73.0616 80.719L72.3701 79.2693Z" fill="#FFB27D"/>
<path d="M79.7017 120.008C78.1611 128.88 69.7093 134.502 61.0473 134.502H43.582L44.9485 81.188C44.9485 81.188 61.6123 75.3794 65.7971 80.9043C69.4646 85.7438 79.4077 104.901 79.9316 116.246C79.9925 117.505 79.9154 118.767 79.7017 120.008Z" fill="#7BBDF2"/>
<path d="M79.7005 120.008C78.1599 128.88 69.7082 134.502 61.0461 134.502H47.0693C53.6127 130.074 62.4208 117.842 79.7005 120.008Z" fill="#70B6EF"/>
<path d="M52.6265 134.463L52.2339 134.489C51.958 134.504 51.6804 134.514 51.4029 134.517H33.665V134.509L32.6565 134.522C30.8581 134.543 28.9792 134.564 27.2366 134.579H26.3743H26.0606C24.3394 134.591 22.8169 134.596 21.7313 134.589C20.2853 134.588 18.8414 134.478 17.4118 134.261C15.7543 134.013 14.1361 133.551 12.5979 132.887C12.074 132.655 11.5631 132.396 11.0672 132.109C10.404 131.728 9.77097 131.298 9.1735 130.82C7.55045 129.507 6.18218 127.908 5.13648 126.102C4.29241 124.656 3.5911 123.13 3.04242 121.548C2.22189 119.168 1.60757 116.722 1.20622 114.237C0.53448 110.318 0.1518 105.752 0.0351901 100.475C-0.010797 98.3488 -0.0140814 96.1075 0.0253361 93.7515C0.0866524 89.9797 0.254723 85.8952 0.529551 81.498C0.913873 75.3171 1.50021 68.4966 2.27542 60.9989C2.98329 54.144 3.79793 49.3554 4.98374 48.2583C6.73454 46.6478 10.3839 46.0001 12.9215 45.741C14.4965 45.577 15.6413 45.5671 15.6413 45.5671C18.7438 45.5671 21.4997 47.7909 22.495 51.0953C24.5234 57.819 28.1416 69.8512 31.9076 82.4327L31.9634 82.6213L32.6204 84.7942C32.6532 84.9057 32.6877 85.0156 32.7206 85.1222L33.3775 84.8287L33.4005 84.8188C34.3022 84.4187 35.3254 83.9808 36.4275 83.5348C36.999 83.3035 37.5919 83.069 38.2029 82.8361C39.9258 82.1802 41.7866 81.5242 43.6721 80.9633C44.5081 80.7124 45.3506 80.4714 46.1882 80.2729C47.264 80.0073 48.3234 79.781 49.3712 79.617L49.4615 79.6022L49.8294 79.5464C54.3132 78.8905 58.2057 79.3447 59.8152 82.1818C62.3922 86.7228 69.4807 104.844 69.9981 116.215C70.4941 126.689 61.906 133.767 52.6265 134.463Z" fill="#4E99D3"/>
<path d="M24.6098 87.2443C24.6098 87.2443 15.6472 50.7789 14.9985 47.7139C14.7094 46.3478 13.8209 45.8542 12.9258 45.7279C14.5025 45.5639 15.6489 45.5541 15.6489 45.5541C18.7497 45.5541 21.5057 47.7713 22.501 51.0659C24.6722 58.2504 28.6698 71.501 32.72 84.9976C32.5147 84.9927 24.6098 87.2443 24.6098 87.2443Z" fill="#7BBDF2"/>
<path d="M146.567 119.526C147.995 128.674 157.344 134.499 166.932 134.499H185.923L184.445 81.1847C184.445 81.1847 166.325 75.3761 161.78 80.901C157.792 85.7404 146.981 104.898 146.412 116.238C146.35 117.337 146.402 118.438 146.567 119.526Z" fill="#D7E3F3"/>
<path d="M196.98 86.8327C196.98 86.8327 171.359 73.7756 166.509 82.3048C163.932 86.8343 156.842 104.901 156.326 116.24C155.817 127.257 165.377 134.502 175.214 134.502H192.679L196.98 86.8327Z" fill="#B1CBEF"/>
<path d="M192.163 94.0745C192.38 95.1847 194.462 96.2064 197.532 97.1248C198.079 97.2855 198.652 97.4429 199.248 97.5971C209.725 100.269 228.281 101.759 230.05 100.972C232.494 99.8831 247.495 46.6642 247.495 46.6642C247.495 46.6642 233.175 46.1279 221.803 45.8655C217.912 45.777 214.368 45.7196 211.859 45.7278C211.57 45.7282 211.282 45.7479 210.996 45.7868C210.025 45.9034 209.128 46.3622 208.465 47.0807C206.636 49.0486 206.181 52.9254 204.486 57.2155C202.811 61.4563 200.753 66.75 198.802 72.0027C198.299 73.3556 197.803 74.707 197.323 76.0369L196.921 77.157C194.035 85.214 191.815 92.2771 192.163 94.0745Z" fill="#C8DEF8"/>
<path d="M146.566 119.526C147.995 128.674 157.344 134.499 166.932 134.499H176.248C170.033 130.297 164.419 117.34 146.566 119.526Z" fill="#B1CBEF"/>
<path d="M161.519 126.31C165.185 131.394 170.809 134.656 177.073 134.554L204.008 134.569H216.909L202.387 86.8391C202.387 86.8391 165.647 83.1902 161.117 88.0575C159.013 90.3157 157.832 100.549 157.175 110.864C156.798 116.679 158.492 122.116 161.519 126.31Z" fill="#C6DBF4"/>
<path d="M161.521 126.311C165.186 131.394 170.81 134.656 177.074 134.555L204.009 134.569C200.84 131.913 190.87 124.376 180.204 124.73C172.109 125.004 165.686 124.887 161.521 126.311Z" fill="#BBD3F4"/>
<path d="M181.263 123.79C181.966 124.871 180.527 125.979 178.74 127.032C176.953 128.085 177.706 128.18 175.431 129.946C173.156 131.713 171.786 131.562 171.427 131.319C171.098 131.102 172.026 130.018 172.992 128.833C173.115 128.684 173.235 128.533 173.357 128.382C174.434 127.031 174.56 125.363 175.04 123.626C175.495 121.986 174.62 117.934 174.62 117.934L177.653 115.412C177.653 115.412 178.366 119.092 178.747 120.623C178.972 121.524 179.732 122.263 180.343 122.809C180.693 123.094 181.002 123.423 181.263 123.79Z" fill="#FFB27D"/>
<path d="M178.737 127.035C176.951 128.09 177.703 128.183 175.428 129.95C173.153 131.716 171.784 131.565 171.424 131.322C171.095 131.106 172.023 130.022 172.989 128.836L173.02 128.846C174.451 128.553 175.775 127.878 176.852 126.893C178.278 125.569 179.363 123.733 180.34 122.811C180.69 123.096 180.999 123.427 181.26 123.795C181.966 124.874 180.528 125.983 178.737 127.035Z" fill="#C65447"/>
<path d="M193.026 76.7405C193.026 76.7405 174.65 77.7343 172.046 80.5763C168.268 84.6941 174.361 121.753 174.361 121.753C174.361 121.753 178.64 121.391 179.548 119.958C179.548 119.958 185.296 96.0244 182.363 92.1083C179.43 88.1921 203.356 88.0675 202.729 82.8672C202.101 77.667 193.026 76.7405 193.026 76.7405Z" fill="#163560"/>
<path d="M192.505 52.9122C192.505 52.9122 192.441 52.1644 192.199 59.226C192.047 63.7226 192.308 67.8995 191.05 69.5034C188.915 72.2306 185.924 77.3209 185.924 77.3209L187.507 78.0392C187.507 78.0392 193.627 73.8722 195.108 71.673C196.59 69.4739 198.863 57.6074 198.424 54.6178C197.986 51.6282 192.505 52.9122 192.505 52.9122Z" fill="#F4A269"/>
<path d="M171.772 127.165C171.891 128.447 170.102 128.759 168.029 128.862C165.957 128.966 166.582 129.39 163.743 129.904C160.903 130.417 159.763 129.641 159.558 129.257C159.376 128.918 160.696 128.387 162.104 127.781L162.634 127.552C164.219 126.857 165.108 125.438 166.343 124.123C167.512 122.878 168.622 118.89 168.622 118.89L172.482 118.07C172.482 118.07 171.4 121.66 171.022 123.191C170.802 124.093 171.129 125.1 171.418 125.868C171.594 126.282 171.713 126.719 171.772 127.165Z" fill="#FFB27D"/>
<path d="M168.029 128.862C165.957 128.966 166.582 129.39 163.743 129.904C160.903 130.417 159.763 129.641 159.558 129.258C159.376 128.918 160.696 128.387 162.104 127.782L162.125 127.806C163.528 128.211 165.015 128.229 166.428 127.857C168.307 127.347 170.123 126.227 171.418 125.865C171.594 126.279 171.713 126.716 171.772 127.162C171.891 128.448 170.102 128.759 168.029 128.862Z" fill="#C65447"/>
<path d="M205.422 78.9347C205.422 78.9347 182.636 80.0105 177.93 83.2395C173.225 86.4685 166.865 122.186 166.865 122.186C166.865 122.186 167.358 122.55 168.43 122.624C169.426 122.693 171.589 122.025 171.589 122.025C171.589 122.025 182.1 105.746 182.719 101.723C183.339 97.7004 183.017 94.145 184.797 93.9794C186.577 93.8138 208.922 95.7456 212.061 89.6975C215.199 83.6495 205.422 78.9347 205.422 78.9347Z" fill="#1C468A"/>
<path d="M196.691 51.3774C201.846 54.5621 204.41 45.6885 208.253 54.057C208.253 54.057 217.779 50.746 215.429 43.8895C213.989 39.6716 210.338 40.9031 210.579 38.3137C211.013 33.6087 206.859 24.9352 199.325 28.0691C199.325 28.0691 197.442 27.7903 196.108 28.9661C189.645 34.6698 195.269 40.1881 192.841 42.4611C189.716 45.3785 191.016 51.1691 196.691 51.3774Z" fill="#B5453C"/>
<path d="M206.38 46.6429C204.968 46.5255 203.548 46.5255 202.136 46.6429C200.869 46.7764 199.627 47.0872 198.447 47.5661C196.438 48.4042 196.64 51.953 200.863 51.297C205.086 50.641 206.675 47.6973 206.38 46.6429Z" fill="#FFB27D"/>
<path d="M198.631 49.2323C198.606 49.2455 198.03 52.2859 200.789 52.1645C202.596 52.0842 206.506 49.8965 206.161 48.3468C205.997 47.6121 204.629 45.7016 204.355 41.3427L204.026 41.4312L198.481 42.9153C198.481 42.9153 198.728 44.6717 198.843 46.3346C198.94 47.7318 198.94 49.0618 198.631 49.2323Z" fill="#FFB27D"/>
<path d="M198.479 42.9153C198.479 42.9153 198.726 44.6717 198.841 46.3345C201.978 46.0377 203.44 43.0547 204.024 41.4312L198.479 42.9153Z" fill="#F4A269"/>
<path d="M204.678 41.1212C204.678 41.1212 206.258 38.4727 206.595 36.2359C206.835 34.6386 205.866 28.7676 199.958 29.7762C198.768 29.9734 197.637 30.4352 196.65 31.1275C195.385 32.0295 193.579 33.9547 195.794 39.0402L196.381 40.7637L204.678 41.1212Z" fill="#B5453C"/>
<path d="M197.506 44.6192C197.506 44.6192 204.961 44.5421 204.841 39.9077C204.721 35.2732 205.603 32.141 200.839 31.9934C196.074 31.8458 195.195 33.6333 194.857 35.1962C194.519 36.759 195.563 44.5208 197.506 44.6192Z" fill="#FFB27D"/>
<path d="M197.441 31.972C197.441 31.972 199.627 37.3543 202.781 38.0742C205.934 38.7941 206.813 40.7243 206.813 40.7243C206.813 40.7243 206.052 34.2909 205.465 30.9782C205.465 30.9782 198.91 29.3416 197.441 31.972Z" fill="#B5453C"/>
<path d="M197.955 32.3985C197.955 32.3985 196.463 33.6547 196.123 34.8436C195.783 36.0326 194.974 38.4056 194.974 38.4056C194.974 38.4056 193.331 34.7502 195.008 32.6133C196.782 30.347 197.955 32.3985 197.955 32.3985Z" fill="#B5453C"/>
<path d="M190.083 77.7327C190.685 78.4526 192.568 78.674 194.578 79.0037C196.161 79.2644 197.823 79.5924 199.012 80.2861C201.696 81.8588 210.466 87.1738 213.037 86.936C214.032 86.8409 213.847 84.9418 213.242 82.4213C212.293 78.4412 210.304 72.9097 210.304 70.5105C210.304 69.1985 209.867 66.0941 209.282 62.5453C209.235 62.26 209.187 61.9714 209.138 61.6794C207.988 54.7803 206.385 46.6429 206.385 46.6429C206.385 46.6429 204.601 50.5296 201.129 50.5296C197.657 50.5296 198.446 47.5662 198.446 47.5662C198.446 47.5662 195.274 47.9385 194.525 48.7437C193.776 49.5489 191.876 53.0321 191.498 53.9816C191.498 53.9816 191.421 55.1903 194.419 55.7659C194.419 55.7659 193.689 59.0457 193.597 61.2334C193.533 62.8504 194.701 67.9063 195.038 71.0516C195.156 72.1652 195.172 73.0392 194.992 73.4361C194.76 73.9428 194.006 74.4496 193.156 74.9465C191.474 75.9304 189.368 76.8783 190.083 77.7327Z" fill="#F99746"/>
<path d="M193.168 74.9463C191.244 78.2262 198.386 79.2101 199.573 79.8989C202.258 81.4716 210.467 87.1769 213.041 86.9358C214.036 86.8407 213.85 84.9417 213.246 82.4211C212.297 78.441 210.308 72.9095 210.308 70.5103C210.308 69.1984 209.871 66.094 209.286 62.5452L206.192 59.5786C206.192 59.5786 202.878 68.1357 199.718 69.5379C198.215 70.1835 196.655 70.6901 195.06 71.0515C195.178 72.165 195.194 73.0391 195.014 73.4359C194.772 73.9361 194.022 74.4494 193.168 74.9463Z" fill="#ED7D2B"/>
<path d="M207.33 49.2044C207.33 49.2044 209.974 47.6006 212.533 50.6426C215.092 53.6847 210.715 75.4383 206.924 76.5535C202.715 77.7949 193.508 79.8678 193.508 79.8678L193.156 78.5181C193.156 78.5181 203.735 71.9797 204.272 71.2893C204.809 70.5989 205.985 49.5554 207.33 49.2044Z" fill="#FFB27D"/>
<path d="M206.379 46.6429C206.379 46.6429 211.812 47.1349 213.389 48.9159C214.966 50.6968 215.429 55.5363 215.429 55.5363C215.429 55.5363 210.645 59.3917 204.88 57.8961L206.379 46.6429Z" fill="#F99746"/>
<path d="M185.923 77.321C185.923 77.321 183.609 78.6576 183.175 79.8695C182.742 81.0814 182.927 82.8214 183.175 82.9362C183.423 83.051 185.448 81.3799 185.923 80.8895C186.398 80.3992 185.655 82.0703 186.212 82.008C186.769 81.9456 187.506 78.0393 187.506 78.0393L185.923 77.321Z" fill="#F4A269"/>
<path d="M193.156 78.5281C193.156 78.5281 191.328 78.3838 190.723 78.5281C190.119 78.6724 186.987 80.6239 187.506 80.988C188.025 81.352 190.397 81.1273 190.909 80.7567C191.421 80.3861 192.975 79.9909 193.507 79.8712C194.039 79.7514 193.156 78.5281 193.156 78.5281Z" fill="#FFB27D"/>
<path d="M183.828 120.008C185.369 128.88 193.819 134.502 202.483 134.502H219.961L218.595 81.1879C218.595 81.1879 201.931 75.3793 197.736 80.9042C194.07 85.7436 184.126 104.901 183.612 116.241C183.545 117.501 183.618 118.764 183.828 120.008Z" fill="#DFEBFB"/>
<path d="M183.829 120.008C185.37 128.88 193.82 134.502 202.483 134.502H216.459C209.924 130.074 201.115 117.842 183.829 120.008Z" fill="#CDE0FB"/>
<path d="M210.912 134.463L211.304 134.489C211.58 134.504 211.856 134.514 212.135 134.517H229.873V134.509L230.882 134.522C232.688 134.543 234.557 134.564 236.301 134.579H237.165H237.479C239.2 134.591 240.723 134.596 241.808 134.589C243.254 134.588 244.698 134.478 246.128 134.261C247.785 134.013 249.403 133.551 250.94 132.887C251.464 132.656 251.975 132.396 252.471 132.109C253.135 131.729 253.768 131.298 254.366 130.82C255.986 129.506 257.352 127.907 258.395 126.102C259.239 124.656 259.94 123.131 260.487 121.548C261.309 119.168 261.923 116.722 262.325 114.237C262.997 110.318 263.38 105.752 263.496 100.475C263.542 98.3488 263.546 96.1075 263.506 93.7515C263.444 89.9797 263.275 85.8952 263 81.498C262.618 75.3171 262.03 68.4966 261.254 60.9989C260.548 54.144 259.734 49.3554 258.546 48.2583C256.797 46.6478 253.148 46.0001 250.608 45.741C249.032 45.577 247.887 45.5671 247.887 45.5671C244.786 45.5671 242.029 47.7909 241.033 51.0953C239.007 57.819 235.388 69.8512 231.622 82.4327C231.603 82.495 231.585 82.559 231.565 82.6213C231.346 83.344 231.127 84.0683 230.908 84.7942C230.877 84.9057 230.842 85.0156 230.808 85.1222C230.597 85.0287 230.377 84.9287 230.151 84.8287L230.128 84.8188C229.224 84.4187 228.203 83.9808 227.099 83.5348C226.526 83.3035 225.935 83.069 225.324 82.8361C223.601 82.1802 221.74 81.5242 219.854 80.9633C219.019 80.7124 218.174 80.4714 217.337 80.2729C216.263 80.0073 215.202 79.781 214.155 79.617L214.065 79.6022L213.697 79.5464C209.212 78.8905 205.321 79.3447 203.711 82.1818C201.134 86.7228 194.044 104.844 193.528 116.215C193.042 126.689 201.63 133.767 210.912 134.463Z" fill="#A6C0E3"/>
<path d="M238.927 87.2443C238.927 87.2443 247.891 50.7789 248.54 47.7139C248.827 46.3478 249.716 45.8542 250.611 45.7279C249.036 45.5639 247.889 45.5541 247.889 45.5541C244.789 45.5541 242.031 47.7713 241.036 51.0659C238.864 58.2504 234.867 71.501 230.818 84.9976C231.02 84.9927 238.927 87.2443 238.927 87.2443Z" fill="#DFEBFB"/>
<path d="M77.6147 17.703C77.122 5.44458 87.4083 -0.00817871 97.9279 -0.00817871C108.447 -0.00817871 119.898 2.71246 120.89 19.015C121.529 29.5007 115.93 35.9522 99.8101 35.9522C94.3737 35.9522 90.1495 35.0961 86.9123 33.5694L78.8547 40.7194L82.8227 30.8421C79.3064 27.5853 77.8282 22.9918 77.6147 17.703Z" fill="white"/>
<path d="M184.176 22.1309C184.572 12.3323 176.347 7.97992 167.936 7.97992C159.525 7.97992 150.374 10.1545 149.581 23.1853C149.071 31.567 153.545 36.7246 166.432 36.7246C170.779 36.7246 174.151 36.0407 176.743 34.819L183.184 40.5341L180.019 32.6346C182.823 30.032 184.005 26.3602 184.176 22.1309Z" fill="white"/>
</g>
<defs>
<clipPath id="clip0_314_1128">
<rect width="263.534" height="134.604" fill="white"/>
</clipPath>
</defs>
</svg>
