<svg width="1920" height="743" viewBox="0 0 1920 743" fill="none" xmlns="http://www.w3.org/2000/svg">
<path d="M-160 703.65C467.02 703.65 534.862 355.2 939.855 355.2C1344.85 355.2 1597.71 15.6499 1989 15.6499" stroke="#BAECCC" stroke-width="2"/>
<path d="M-172 690.65C455.312 690.65 523.185 341.694 928.367 341.694C1333.55 341.694 1586.53 1.6499 1978 1.6499" stroke="#BAECCC" stroke-width="2"/>
<path d="M-120 717.65C507.312 717.65 575.185 368.694 980.367 368.694C1385.55 368.694 1638.53 28.6499 2030 28.6499" stroke="#BAECCC" stroke-width="2"/>
<path d="M-69 728.65C558.02 728.65 625.862 379.694 1030.85 379.694C1435.85 379.694 1688.71 39.6499 2080 39.6499" stroke="#BAECCC" stroke-width="2"/>
<path d="M-39 741.65C588.312 741.65 656.185 392.694 1061.37 392.694C1466.55 392.694 1719.53 52.6499 2111 52.6499" stroke="#BAECCC" stroke-width="2"/>
</svg>
