<svg width="151" height="94" viewBox="0 0 151 94" fill="none" xmlns="http://www.w3.org/2000/svg">
<g clip-path="url(#clip0_462_77)">
<path d="M106.03 83.8833C96.9757 81.5681 87.0222 67.4565 87.0222 67.4565L89.5729 65.2379C92.2119 68.3645 103.186 73.7493 103.186 73.7493C103.128 70.8873 103.202 68.2789 103.382 65.9035C104.599 49.7618 110.657 44.3834 112.31 43.2044C112.444 43.105 112.584 43.014 112.729 42.9318C112.729 42.9318 112.729 43.0491 112.745 43.2725C112.769 43.7479 112.813 44.7178 112.859 46.0442C113.193 55.9199 113.595 85.8182 106.03 83.8833Z" fill="#FFB27D"/>
<path d="M89.5723 65.2347C89.5328 64.8544 89.73 59.8563 88.0958 58.8421C86.8023 58.0497 84.9205 55.7583 84.2974 55.8756C83.6743 55.9928 81.966 59.6534 82.9629 62.0859C83.9598 64.5184 87.0216 67.4564 87.0216 67.4564L89.5723 65.2347Z" fill="#FFB27D"/>
<path d="M119.853 24.9727C119.853 24.9727 124.721 29.1372 120.257 33.9309C120.257 33.9309 123.978 34.2986 125.236 33.2638C125.11 33.5265 124.951 33.7719 124.763 33.9943C124.763 33.9943 128.923 34.1528 130.639 32.8422C132.355 31.5317 131.253 10.1606 119.711 12.5582C119.711 12.5582 109.931 11.815 110.838 23.1883C111.745 34.5616 108.055 34.5616 108.055 34.5616C108.055 34.5616 109.082 35.0703 109.579 35.0703C109.579 35.0703 110.303 34.793 110.447 34.3905C110.447 34.3905 110.303 35.0244 110.117 35.224C110.117 35.224 114.105 35.6043 116.095 34.091C118.086 32.5776 120.421 27.3196 119.853 24.9727Z" fill="#B5453C"/>
<path d="M105.187 49.9125H131.862C129.954 45.1093 127.22 41.6357 125.146 41.2094C124.042 40.9162 122.161 36.8991 122.185 30.4335L121.686 30.5334L113.309 32.1989C113.309 32.1989 113.498 34.8485 113.506 37.3443C113.506 39.4235 113.4 41.539 112.93 41.7815C112.328 41.8354 111.78 41.9399 111.78 41.9399C111.78 41.9399 107.234 45.1505 105.187 49.9125Z" fill="#FFB27D"/>
<path d="M113.309 32.1924C113.309 32.1924 113.5 34.842 113.506 37.3363C118.194 37.2032 120.671 32.8992 121.687 30.5222L113.309 32.1924Z" fill="#E8945B"/>
<path d="M122.552 29.6093C122.552 29.6093 125.008 25.711 125.598 22.3752C126.019 19.9982 124.809 11.1715 115.985 12.4424C114.207 12.692 112.508 13.3391 111.012 14.3361C109.095 15.6371 106.33 18.4452 109.422 26.1452L110.225 28.7457L122.552 29.6093Z" fill="#B5453C"/>
<path d="M111.744 34.5551C111.744 34.5551 122.835 34.7389 122.843 27.798C122.851 20.8571 124.288 16.206 117.205 15.7956C110.123 15.3852 108.746 18.0316 108.183 20.3484C107.619 22.6652 108.859 34.3285 111.744 34.5551Z" fill="#FFB27D"/>
<path d="M112.155 15.6261C112.155 15.6261 115.192 23.7682 119.853 24.9757C124.514 26.1833 126.535 24.925 126.535 24.925C126.535 24.925 122.961 22.0726 122.218 17.0919C122.218 17.0887 114.446 11.7499 112.155 15.6261Z" fill="#B5453C"/>
<path d="M112.906 16.2868C112.906 16.2868 110.638 18.1044 110.086 19.873C109.534 21.6415 109.285 25.2783 108.228 25.1547C108.228 25.1547 105.94 19.6194 108.512 16.4881C111.237 13.1681 112.906 16.2868 112.906 16.2868Z" fill="#B5453C"/>
<path d="M124.585 41.0017L126.635 49.9124L127.383 53.161L128.202 56.7282C128.202 56.7282 130.069 63.341 131.83 69.7907C132.101 70.7843 132.368 71.7732 132.626 72.7351C133.557 76.2214 134.361 79.3179 134.677 80.8693C135.109 82.9294 137.407 87.525 139.882 92.073C141.539 95.1251 143.271 98.1551 144.572 100.389H149.036C148.068 97.6147 147.082 94.2551 146.197 91.1175C144.924 86.6201 143.856 82.5807 143.339 81.37C142.98 80.5317 142.293 76.5732 141.394 71.4752C139.78 62.3253 137.483 49.5004 135.183 44.4183C134.906 43.8082 134.115 43.2916 133.079 42.8558C130.333 41.7021 125.878 41.138 124.821 41.0176L124.585 41.0017Z" fill="#FFB27D"/>
<path d="M112.486 16.5627C112.486 16.5627 114.651 25.0899 120.531 27.814C120.531 27.814 114.651 22.575 114.151 16.9462C113.651 11.3174 112.486 16.5627 112.486 16.5627Z" fill="#B5453C"/>
<path d="M113.198 64.5106C112.725 76.0265 111.014 87.4283 106.024 86.6962C99.9071 85.7993 98.3139 80.0643 97.989 75.7999C97.8659 74.2213 97.8955 72.6345 98.0773 71.0617C98.0773 71.0617 101.089 71.049 101.576 70.5974C103.888 68.4517 103.201 47.4086 104.346 45.2234C105.491 43.0381 112.916 41.6356 112.916 41.6356C112.916 41.6356 113.665 53.1294 113.198 64.5106Z" fill="white"/>
<path d="M101.945 100.4H137.493C137.403 100.045 137.315 99.7095 137.23 99.3894C135.782 93.9476 130.931 82.045 129.892 79.5111C129.843 79.3938 129.803 79.2988 129.773 79.2227L129.715 79.088L129.693 79.0309C128.383 79.5229 127.039 79.9174 125.672 80.2115C125.001 80.3552 124.332 80.4783 123.664 80.5808C118.941 81.3018 114.414 80.9754 111.22 80.5142C110.885 80.4683 110.564 80.416 110.261 80.3684C109.045 80.1766 107.839 79.9228 106.648 79.6078C106.648 79.6078 106.648 79.6331 106.628 79.6838C106.607 79.7345 106.598 79.7948 106.577 79.8819C106.439 80.4065 106.104 81.6853 105.551 83.7486C105.34 84.5335 105.1 85.4315 104.831 86.4425C104.374 88.1487 103.828 90.185 103.192 92.5515C102.593 94.7827 102.199 97.5322 101.945 100.4Z" fill="#F99746"/>
<path d="M151.2 85.9292C151.2 88.8228 148.263 90.5992 145.111 91.4645C142.08 92.2964 138.852 92.2854 137.843 91.6071C136.108 90.4344 133.268 77.394 132.434 73.4244C132.284 72.705 132.2 72.2834 132.2 72.2834C132.2 72.2834 129.935 77.711 129.864 78.2181C129.833 78.4447 129.806 78.7585 129.784 79.0342C129.762 79.367 129.747 79.6443 129.747 79.6443C129.747 79.6443 117.461 85.8737 106.706 80.1514C106.706 80.1514 102.334 54.7663 104.231 50.3973C105.178 48.2263 110.094 43.7416 112.063 41.813C112.505 41.3788 112.462 40.5184 112.29 39.7324C112.257 39.581 112.262 39.4235 112.307 39.2749C112.351 39.1264 112.432 38.9916 112.543 38.8835C112.653 38.7754 112.79 38.6974 112.939 38.6571C113.088 38.6168 113.245 38.6155 113.394 38.6532C114.656 38.9844 116.939 38.9273 119.379 38.1223C120.676 37.6998 121.908 37.0954 123.037 36.3269C123.116 36.2729 123.208 36.2403 123.304 36.2323C123.399 36.2243 123.495 36.241 123.582 36.281C123.669 36.3209 123.745 36.3827 123.801 36.4604C123.858 36.5381 123.893 36.6291 123.905 36.7246C124.091 38.238 124.545 41.0033 125.376 41.0033C126.522 41.0033 134.333 41.9541 134.904 42.9302C135.104 43.2694 137.134 47.884 139.698 53.9993C139.699 54.0045 139.699 54.0099 139.698 54.0151C144.518 65.4851 151.2 82.2289 151.2 85.9292Z" fill="white"/>
<path d="M132.2 72.2834C132.2 72.2834 129.935 77.711 129.864 78.2181C129.833 78.4447 129.806 78.7585 129.784 79.0342C128.668 79.9344 127.389 80.6097 126.018 81.023C122.188 82.1893 120.524 74.8142 120.753 71.1345C120.982 67.4549 126.398 56.9516 128.203 56.7329C130.008 56.5142 132.2 72.2834 132.2 72.2834Z" fill="#ECF3FE"/>
<path d="M132.434 73.4244C132.284 72.705 132.2 72.2834 132.2 72.2834C132.315 72.6553 132.393 73.0374 132.434 73.4244Z" fill="#E58638"/>
<path d="M116.728 82.953C109.736 82.953 106.854 80.5364 106.641 80.3716L106.19 77.0627C106.256 77.1135 115.637 82.7676 130.155 77.3528L129.848 79.8581C124.264 81.9404 120.36 82.953 116.728 82.953Z" fill="#233862"/>
<path d="M82.1302 53.5524L82.2942 56.8296L82.5103 61.1399L82.6901 64.7102H88.6117L88.801 61.1399L89.0345 56.8296L89.208 53.5524H82.1302Z" fill="#233862"/>
<path d="M81.7221 54.0721H89.5713L89.3489 52.8661H81.8625L81.7221 54.0721Z" fill="white"/>
<path d="M84.8779 52.8671L83.0481 52.4385L82.7973 52.8671H84.8779Z" fill="white"/>
<path d="M82.2939 56.8296L82.51 61.1399H88.8007L89.0342 56.8296H82.2939Z" fill="white"/>
<path d="M82.2939 56.8295C82.2939 56.8295 83.8982 55.6093 84.1521 57.2574C84.2752 58.0592 82.488 60.6946 82.488 60.6946C81.8759 60.1336 81.4122 57.2257 82.2939 56.8295Z" fill="#FFB27D"/>
<path d="M114.665 30.2338C114.665 30.2338 114.439 31.1529 112.155 30.9833C112.155 30.9833 110.239 30.8423 110.31 29.8281C110.31 29.8281 112.177 29.1292 114.665 30.2338Z" fill="white"/>
<g clip-path="url(#clip1_462_77)">
<path d="M17.0821 49.5941C16.4602 48.3879 30.6578 44.044 30.8817 55.9425C30.8817 55.9425 57.4818 55.2865 44.7788 40.385C40.3774 35.2255 40.8347 30.9586 40.9668 26.9898C41.0988 23.0211 38.2283 11.4765 28.3843 12.6385C28.3843 12.6385 25.8066 11.5843 22.5878 13.2618C15.2698 17.0843 -1.11892 53.9841 17.0821 49.5941Z" fill="#163560"/>
<path d="M60.5635 62.9047C60.5635 62.9047 62.2858 60.2556 63.6885 60.2114C65.0913 60.1671 67.669 59.4419 67.4623 59.9517C67.2556 60.4615 65.6539 60.5288 65.4989 60.8347C65.3438 61.1406 67.8757 61.6042 68.599 61.6657C69.3224 61.7273 71.0275 61.6657 70.9758 62.0293C70.9241 62.3929 67.9025 63.8992 65.7706 63.6915C63.6388 63.4837 61.0017 64.3148 61.0017 64.3148L60.5635 62.9047Z" fill="#FFB27D"/>
<path d="M35.5264 63.7627C36.2828 65.1836 37.1689 66.5309 38.173 67.7872C40.2302 70.3766 43.4031 73.3661 47.3855 73.9606C49.2877 74.2414 51.1477 73.8317 52.8586 73.0679C57.6945 70.9095 61.3324 65.95 61.3324 65.95C62.184 63.6107 60.7889 62.0274 60.7889 62.0274C60.7889 62.0274 51.0291 64.2359 50.0933 63.7588C49.1575 63.2817 43.7361 47.5761 42.4386 45.6023C41.1411 43.6285 36.7435 42.6012 36.7435 42.6012L35.5264 63.7627Z" fill="#B0D0FF"/>
<path d="M38.1728 67.7873C40.23 70.3766 43.4029 73.3662 47.3852 73.9606C49.2874 74.2415 51.1475 73.8317 52.8584 73.068C52.667 73.093 47.8369 73.6913 45.9117 70.2285C43.9483 66.6965 41.8241 61.0868 38.9076 62.9567C37.6484 63.7627 37.7039 65.7692 38.1728 67.7873Z" fill="#98BAF4"/>
<path d="M12.3797 87.8098C15.8243 80.0416 17.9294 77.8062 17.5313 75.4014C17.2309 73.6066 18.4423 41.9432 18.4423 41.9432C18.8518 41.8163 19.6708 41.7008 20.1186 41.6008C20.8128 41.4494 21.4575 41.124 21.9929 40.6548C22.5282 40.1856 22.9368 39.5878 23.1805 38.9172C23.7661 37.2666 24.2331 34.8291 24.2216 31.7723L24.6636 31.8608L32.0849 33.3382C32.0849 33.3382 31.9165 35.6852 31.9108 37.8976V37.9534C31.9046 38.8877 32.2023 39.7986 32.7585 40.5473C33.3146 41.2959 34.0988 41.8415 34.9918 42.101C35.9276 42.3742 36.7447 42.6069 36.7447 42.6069C36.7447 42.6069 39.4698 50.4271 39.998 58.4626C40.5261 66.4982 35.0415 69.988 40.0382 86.0438C45.1419 102.444 10.4852 92.1017 12.3797 87.8098Z" fill="#FFB27D"/>
<path d="M32.0951 33.3382C32.0951 33.3382 31.9267 35.6852 31.9209 37.8976C27.7682 37.7802 25.5733 33.9712 24.6738 31.8608L32.0951 33.3382Z" fill="#E8945B"/>
<path d="M33.4826 35.4371C33.4826 35.4371 23.6559 35.6006 23.6501 29.4484C23.6444 23.2962 22.3699 19.1716 28.6429 18.808C34.916 18.4445 36.1369 20.7915 36.6364 22.848C37.1358 24.9045 36.0374 35.2313 33.4826 35.4371Z" fill="#FFB27D"/>
<path d="M33.1193 18.6521C33.1193 18.6521 30.4286 25.8701 26.2989 26.9378C22.1692 28.0055 20.3799 26.8935 20.3799 26.8935C20.3799 26.8935 23.547 24.3638 24.2072 19.9487C24.2034 19.9487 31.0888 15.2163 33.1193 18.6521Z" fill="#163560"/>
<path d="M32.4502 19.2371C32.4502 19.2371 34.4462 19.9873 35.2671 21.4494C36.2581 23.1584 36.7204 25.1254 36.5952 27.0995C36.5952 27.0995 38.6218 22.192 36.3445 19.4179C33.9276 16.4745 32.4502 19.2371 32.4502 19.2371Z" fill="#163560"/>
<path d="M31.3447 31.6146C31.5974 31.9017 31.9126 32.1262 32.2658 32.2707C32.619 32.4152 33.0006 32.4757 33.3809 32.4476C33.6989 32.4294 34.0065 32.3269 34.2724 32.1505C34.5382 31.9742 34.7529 31.7302 34.8946 31.4434C34.8946 31.4434 32.8852 30.9567 31.3447 31.6146Z" fill="#EBF3FA"/>
<path d="M11.4304 55.9484C11.281 58.5401 11.281 61.1383 11.4304 63.73C11.5969 66.5426 14.4272 70.3112 14.8291 71.2327C15.8357 73.5701 16.9724 73.951 16.9724 73.951L25.7639 76.1172L28.8564 76.8867L38.6047 73.9606C38.6047 73.9606 43.0444 61.5023 41.2608 54.4882C39.4773 47.4742 36.7541 42.6051 36.7541 42.6051C36.7541 42.6051 28.799 50.4348 18.4421 41.9414L11.4304 55.9484Z" fill="#B0D0FF"/>
<path d="M14.0049 64.8709C14.1714 67.6834 14.4278 70.3036 14.8297 71.2347C15.8363 73.5721 16.973 73.953 16.973 73.953L25.7645 76.1191L29.5918 74.9899C29.5918 74.9899 16.8448 73.0488 18.2571 62.0237L14.0049 64.8709Z" fill="#F2CCAA"/>
<path d="M37.9856 75.8516C37.9856 75.8516 42.8119 90.9571 43.1219 96.0993C43.4319 101.242 33.8941 169.158 33.5114 171.528C33.1497 173.762 30.3902 175.184 30.3902 175.184C30.3902 175.184 29.1214 175.936 27.3091 175.422C24.7965 174.708 24.0023 173.854 24.0023 173.854C24.0023 173.854 20.2457 125.419 22.5709 108.117C23.9864 97.4179 24.7717 86.644 24.9228 75.8516H37.9856Z" fill="#ED7D2B"/>
<path d="M17.5314 75.4015C17.5314 75.4015 10.1676 85.3339 9.48059 92.0479C8.79358 98.7618 8.40318 122.345 6.94113 128.892C5.47908 135.438 0.105469 148.033 0.105469 168.448C0.105469 168.448 0.664262 169.618 2.38849 170.241C3.04675 170.465 3.71695 170.651 4.39594 170.799C5.08701 170.959 5.81129 170.879 6.4519 170.574C7.0925 170.268 7.61205 169.755 7.92668 169.116C11.5627 161.761 23.1328 138.047 23.726 133.124C24.1451 129.64 27.7983 106.576 35.7688 93.0521C37.6825 89.8048 34.5957 76.8924 34.5957 76.8924L17.5314 75.4015Z" fill="#F99746"/>
<path d="M31.5635 31.782C31.5635 31.782 31.7319 32.5073 33.5269 32.3957C33.5269 32.3957 35.033 32.3014 34.9871 31.505C34.9813 31.5031 33.5269 30.9356 31.5635 31.782Z" fill="white"/>
<path d="M38.7559 73.5277C38.7559 73.5277 36.8173 75.0667 32.967 75.1456C28.3742 75.2399 16.9744 73.9683 16.9744 73.9683C16.6605 74.9106 16.4964 75.8968 16.4883 76.8905C16.4883 76.8905 30.4046 80.4206 38.4688 77.406C38.4688 77.3983 39.508 75.4322 38.7559 73.5277Z" fill="#233862"/>
<path d="M31.9727 76.7346C31.9727 75.4188 32.9142 74.3472 34.0777 74.3472C35.2412 74.3472 36.1828 75.4188 36.1828 76.7346C36.1828 78.0505 35.2412 79.122 34.0777 79.122C32.9142 79.122 31.9727 78.0505 31.9727 76.7346ZM32.6673 76.7346C32.6673 77.6657 33.2969 78.4237 34.072 78.4237C34.847 78.4237 35.4747 77.6657 35.4747 76.7346C35.4747 75.8035 34.8451 75.0456 34.072 75.0456C33.2988 75.0456 32.6673 75.8035 32.6673 76.7346Z" fill="white"/>
<path d="M3.30205 76.592L17.4824 89.1365L34.5636 69.6237L20.3833 57.0792L3.30205 76.592Z" fill="#B5453C"/>
<path d="M20.1895 76.2979C20.1895 76.2979 25.4139 76.9116 25.3966 78.1582C25.3794 79.4048 24.0953 81.9653 23.4504 82.0808C22.8055 82.1962 19.1982 78.618 19.1982 78.618L20.1895 76.2979Z" fill="#FFB27D"/>
<path d="M18.4422 41.9415C18.4422 41.9415 11.4669 42.434 8.79345 48.9671C6.12004 55.5003 1.04688 66.4734 1.04688 68.3164C1.04688 70.1594 3.88104 75.8518 19.0986 79.1222C19.0986 79.1222 20.6736 77.4582 20.5779 76.1423C20.5779 76.1423 11.0784 67.9393 11.1033 66.9794C11.153 65.1672 12.661 62.7721 21.0028 54.3864C23.2685 52.1048 18.4422 41.9415 18.4422 41.9415Z" fill="#B0D0FF"/>
</g>
<path d="M95.4946 13.3033C95.7817 5.89105 89.808 2.59314 83.6991 2.59314C77.5902 2.59314 70.9422 4.23995 70.366 14.1004C69.9953 20.4438 73.247 24.3433 82.6066 24.3433C85.7633 24.3433 88.2157 23.8255 90.0951 22.9017L94.7738 27.2276L92.4753 21.2484C94.5116 19.2815 95.3697 16.5013 95.4946 13.3033Z" fill="white"/>
</g>
<defs>
<clipPath id="clip0_462_77">
<rect width="151" height="94" fill="white" transform="matrix(-1 0 0 1 151 0)"/>
</clipPath>
<clipPath id="clip1_462_77">
<rect width="98.746" height="88.1087" fill="white" transform="translate(-3.38672 12.3173)"/>
</clipPath>
</defs>
</svg>
