<svg width="352" height="335" viewBox="0 0 352 335" fill="none" xmlns="http://www.w3.org/2000/svg">
<path fill-rule="evenodd" clip-rule="evenodd" d="M298.289 145.078C301.214 168.258 320.644 219.462 326.216 236.317C332.049 253.95 340.56 270.561 351.449 285.569C349.608 288.41 347.669 291.317 345.669 294.248C342.105 299.416 337.138 304.879 332.115 310.181C312.435 299.641 287.428 282.936 256.233 256.66C249.147 250.688 242.441 244.279 236.152 237.47C153.669 148.205 143.729 -0.8234 158.605 0.00342591C174.602 0.902747 287.561 59.7943 298.289 145.078Z" fill="#93C5F0"/>
<path d="M185.441 43.2824C193.755 51.8411 201.546 60.8957 208.77 70.3974C266.181 145.43 251.121 176.634 279.842 232.924C285.184 243.436 291.321 253.52 298.2 263.087C304.569 272.006 313.436 282.84 320.98 289.854L321.03 289.895C321.414 290.273 321.635 290.786 321.648 291.327C321.66 291.868 321.463 292.394 321.097 292.795C320.731 293.195 320.226 293.439 319.686 293.475C319.147 293.512 318.616 293.337 318.206 292.988C310.104 285.725 300.812 274.583 294.456 265.8C287.418 256.058 281.133 245.79 275.656 235.083C244.907 174.876 264.573 151.434 206.947 71.7577C200.065 62.0939 192.607 52.8564 184.613 44.0951C184.528 43.9812 184.487 43.8396 184.5 43.6972C184.512 43.5548 184.576 43.4214 184.679 43.3224C184.783 43.2234 184.919 43.1657 185.062 43.1602C185.204 43.1548 185.343 43.2019 185.453 43.2926L185.441 43.2824Z" fill="#85BAE2"/>
<path fill-rule="evenodd" clip-rule="evenodd" d="M345.634 294.253C342.07 299.421 337.102 304.884 332.079 310.186C326.722 315.843 321.306 321.305 317.461 326.041C149.12 359.566 63.2055 285.257 42.1208 259.92C18.9427 232.077 0 225.167 0 225.167C42.49 196.872 87.6412 221.983 145.137 213.251C165.364 210.153 199.912 221.504 236.151 237.471C276.241 255.132 318.419 278.475 345.634 294.253Z" fill="white"/>
<path fill-rule="evenodd" clip-rule="evenodd" d="M334.921 289.014C340.225 287.388 115.117 84.4164 18.1439 100.088C18.1439 100.088 1.14437 90.4429 60.6636 155.495C133.319 234.913 280.665 305.769 334.921 289.014Z" fill="#9ACCF3"/>
<path d="M74.9973 134.117C82.5991 138.894 90.1603 143.729 97.6807 148.621C105.201 153.513 112.697 158.452 120.169 163.437L131.354 170.929L142.495 178.488C149.923 183.543 157.298 188.666 164.62 193.858C179.292 204.208 193.751 214.871 207.997 225.846C222.215 236.861 236.21 248.208 248.87 261.275C249.257 261.666 249.473 262.196 249.469 262.749C249.465 263.301 249.242 263.831 248.849 264.222C248.456 264.613 247.925 264.832 247.373 264.832C246.821 264.832 246.293 264.612 245.906 264.221L245.825 264.155L241.089 259.478L238.718 257.143C237.933 256.359 237.148 255.574 236.3 254.853C232.97 251.895 229.695 248.919 226.303 245.972L216.015 237.379C212.563 234.531 209.029 231.794 205.535 228.995C191.46 217.93 177.131 207.181 162.548 196.75C147.975 186.317 133.408 175.866 118.595 165.75C111.206 160.665 103.8 155.608 96.3785 150.579C88.9752 145.524 81.5398 140.495 74.0714 135.544C73.9788 135.487 73.8989 135.411 73.8365 135.322C73.7741 135.232 73.7305 135.131 73.7083 135.024C73.6861 134.918 73.6857 134.807 73.7073 134.7C73.7288 134.593 73.7718 134.491 73.8337 134.4C73.8884 134.301 73.963 134.215 74.0528 134.146C74.1426 134.078 74.2455 134.029 74.355 134.002C74.4645 133.975 74.5782 133.972 74.6888 133.992C74.7994 134.012 74.9045 134.055 74.9973 134.117Z" fill="#85BAE2"/>
<path fill-rule="evenodd" clip-rule="evenodd" d="M345.634 294.253C342.07 299.421 337.102 304.884 332.079 310.186C326.722 315.843 321.306 321.305 317.461 326.041C149.12 359.566 63.2055 285.257 42.1208 259.92C18.9427 232.077 0 225.167 0 225.167C42.49 196.872 87.6412 221.983 145.137 213.251C165.364 210.153 199.912 221.504 236.151 237.471C276.241 255.132 318.419 278.475 345.634 294.253Z" fill="#9FD0F3"/>
<path d="M51.7199 239.238C62.628 244.404 73.5184 249.567 84.5606 254.445C95.6029 259.322 106.69 264.005 117.982 268.162C129.274 272.319 140.679 276.136 152.283 279.255C155.179 280.066 158.102 280.718 161.01 281.464C163.918 282.21 166.867 282.78 169.816 283.349C172.765 283.919 175.701 284.53 178.677 285.016C181.653 285.502 184.603 286.02 187.576 286.472C211.393 290.084 235.576 291.492 259.656 294.343C265.686 295.043 271.704 295.796 277.711 296.676C283.718 297.557 289.747 298.562 295.676 299.778C307.587 302.234 319.394 305.563 330.552 310.504C330.826 310.642 331.036 310.88 331.141 311.169C331.245 311.458 331.236 311.777 331.114 312.061C330.993 312.345 330.769 312.573 330.487 312.699C330.205 312.824 329.887 312.839 329.597 312.739C318.451 308.294 306.874 305.002 295.045 302.912C283.247 300.738 271.244 299.218 259.243 297.973C247.243 296.727 235.178 295.776 223.113 294.647C211.049 293.518 198.984 292.325 186.95 290.525C174.879 288.839 162.932 286.389 151.18 283.19C139.461 279.973 127.927 276.181 116.578 271.816C105.256 267.455 94.1409 262.602 83.1533 257.506C77.66 254.964 72.2245 252.301 66.8097 249.613C61.3949 246.925 55.9987 244.19 50.6334 241.416C50.3575 241.267 50.1509 241.016 50.057 240.717C49.9632 240.417 49.9894 240.091 50.1303 239.809C50.2711 239.527 50.5156 239.309 50.8121 239.203C51.1087 239.096 51.4341 239.109 51.7199 239.238Z" fill="#85BAE2"/>
</svg>
